<svg width="108" height="108" viewBox="0 0 108 108" fill="none" xmlns="http://www.w3.org/2000/svg">
<path d="M32.2183 33.8609C32.3916 33.8193 32.6273 33.7708 32.7382 33.7639C32.8491 33.75 33.1471 33.7639 33.3967 33.7847C33.6808 33.8124 34.0205 33.9094 34.3185 34.048C34.575 34.1659 34.9562 34.4223 35.1849 34.6303C35.4622 34.8937 35.6701 35.1709 35.8781 35.5868C36.1415 36.1066 36.183 36.2383 36.2177 36.7928C36.2524 37.278 36.2316 37.4998 36.1415 37.7979C36.0791 38.0058 35.7672 38.7059 35.4553 39.3574C35.0186 40.2724 34.8869 40.6189 34.8592 40.917C34.8384 41.2289 34.8661 41.3675 35.0117 41.6794C35.1156 41.8874 35.3582 42.2755 35.5592 42.5458C35.7602 42.8092 36.2732 43.3845 36.689 43.8212C37.1049 44.2579 37.7495 44.8678 38.11 45.1797C38.4704 45.4847 38.9694 45.9006 39.219 46.0947C39.4685 46.2888 40.0161 46.6769 40.4319 46.9611C40.8478 47.2453 41.4716 47.6473 41.8182 47.8483C42.1648 48.0493 42.7401 48.3612 43.1005 48.5414C43.4609 48.7216 44.1333 49.0197 44.5907 49.1999C45.0482 49.3801 45.7483 49.6366 46.1503 49.7683C46.5523 49.893 47.2246 50.094 47.6405 50.2049C48.0564 50.3158 48.7149 50.4683 49.0961 50.5446C49.4773 50.6139 50.212 50.7317 50.725 50.808C51.4805 50.9119 52.1112 50.9327 54.052 50.9327C55.9789 50.9327 56.6235 50.905 57.379 50.808C57.8919 50.7387 58.7514 50.5862 59.2851 50.4753C59.8188 50.3713 60.7684 50.1218 61.3992 49.9208C62.0299 49.7267 62.8686 49.4356 63.2706 49.2692C63.6727 49.1098 64.3866 48.784 64.8648 48.5553C65.3431 48.3266 66.057 47.9384 66.459 47.6958C66.8611 47.4532 67.5473 47.0027 67.9839 46.6908C68.4206 46.3719 69.1068 45.8451 69.5088 45.5124C69.9108 45.1797 70.6594 44.4797 71.1723 43.9668C71.6853 43.4538 72.316 42.7468 72.5794 42.4072C72.8359 42.0606 73.0784 41.6725 73.1131 41.5408C73.1478 41.4091 73.1824 41.1804 73.1824 41.0348C73.1824 40.8962 73.1339 40.6328 73.0715 40.4457C73.0091 40.2654 72.7665 39.7317 72.5239 39.2535C72.2883 38.7752 72.0249 38.186 71.9417 37.9365C71.8585 37.6801 71.7962 37.3058 71.7962 37.0701C71.7962 36.8414 71.8447 36.4671 71.9071 36.2383C71.9625 36.0096 72.115 35.6353 72.2328 35.4135C72.3576 35.1917 72.6279 34.8521 72.8359 34.658C73.0438 34.4709 73.3557 34.2421 73.529 34.1589C73.7023 34.0758 74.0142 33.951 74.2221 33.8817C74.4578 33.8055 74.8251 33.7569 75.1925 33.75C75.65 33.75 75.851 33.7777 76.0936 33.8886C76.2669 33.9718 76.4956 34.1104 76.6134 34.2075C76.7313 34.2976 76.9045 34.5471 77.0154 34.755C77.1471 35.0254 77.2026 35.2333 77.2026 35.4898C77.2026 35.7116 77.1471 35.9888 77.057 36.1829C76.9739 36.37 76.6134 36.8622 76.253 37.278C75.8926 37.6939 75.5321 38.1791 75.449 38.3524C75.3727 38.5257 75.3034 38.7891 75.3034 38.9416C75.2965 39.1495 75.3242 39.2188 75.4143 39.2327C75.4905 39.2465 75.8025 39.0039 76.2114 38.6089C76.5857 38.2554 77.0917 37.784 77.3412 37.5622C77.5907 37.3404 77.9442 36.9661 78.1383 36.7235C78.3255 36.4879 78.6096 36.1898 78.7621 36.072C78.9146 35.9542 79.1295 35.8363 79.2473 35.8155C79.3652 35.7947 79.5662 35.7947 79.6979 35.8155C79.8296 35.8433 80.1137 35.9611 80.3217 36.0859C80.5712 36.2314 80.7791 36.4255 80.9316 36.6542C81.0564 36.8483 81.2297 37.1741 81.3129 37.382C81.4307 37.6939 81.4584 37.9157 81.4653 38.595C81.4653 39.3574 81.4515 39.4545 81.2782 39.808C81.1812 40.0159 80.9386 40.3278 80.7514 40.5011C80.5643 40.6744 80.2316 40.9239 80.0167 41.0556C79.7949 41.1873 79.3859 41.5408 79.1018 41.8319C78.7483 42.2062 78.5126 42.532 78.3462 42.8716C78.2146 43.1489 78.0621 43.5925 78.0066 43.8628C77.9442 44.1331 77.868 44.9233 77.8264 45.6303C77.7848 46.3373 77.7224 47.9453 77.6878 49.1999C77.66 50.4545 77.6462 53.0329 77.66 54.9182C77.6739 56.8036 77.7155 59.2226 77.7571 60.29C77.7917 61.3574 77.8611 62.5773 77.8957 62.9932C77.9373 63.4091 78.0343 63.9913 78.1106 64.2755C78.1868 64.5597 78.3532 64.9825 78.471 65.2112C78.5958 65.433 78.8661 65.8073 79.074 66.0361C79.282 66.2579 79.7741 66.6599 80.1623 66.9164C80.5573 67.1797 80.9524 67.4986 81.0495 67.6164C81.1396 67.7412 81.2851 68.0115 81.3614 68.2056C81.4584 68.469 81.5 68.7393 81.5 69.1413C81.5 69.4809 81.4515 69.9038 81.3752 70.1671C81.3059 70.4167 81.1673 70.7632 81.0633 70.9434C80.9594 71.1306 80.7722 71.3801 80.6544 71.5118C80.5296 71.6435 80.2662 71.8168 80.0791 71.9069C79.885 71.9901 79.587 72.0663 79.4137 72.0663C79.178 72.0732 79.0255 72.0247 78.8453 71.9C78.7136 71.8029 78.4641 71.5395 78.2977 71.3108C78.1244 71.0821 77.6808 70.6177 77.2996 70.2711C76.9253 69.9315 76.3916 69.4463 76.1282 69.1898C75.8648 68.9403 75.5668 68.6908 75.2965 68.5452L75.345 68.9957C75.3796 69.273 75.4628 69.5433 75.5668 69.7166C75.6569 69.8691 75.9896 70.2711 76.3015 70.6177C76.6134 70.9642 76.9461 71.394 77.0432 71.5881C77.1749 71.8376 77.2234 72.0386 77.2234 72.3158C77.2234 72.5238 77.1679 72.8218 77.1055 72.9743C77.0432 73.1268 76.9045 73.3417 76.8006 73.4457C76.6966 73.5566 76.4679 73.7229 76.2807 73.813C76.1005 73.9031 75.7331 74.014 75.4698 74.0487C75.0955 74.1041 74.8667 74.0972 74.4439 74.014C74.1528 73.9586 73.7369 73.8269 73.529 73.7229C73.321 73.6189 72.9953 73.3763 72.8151 73.1823C72.6279 72.9951 72.3853 72.6763 72.2813 72.4891C72.1704 72.2951 72.018 71.9554 71.9348 71.7267C71.8516 71.4772 71.7962 71.1375 71.7962 70.8741C71.7962 70.5969 71.8585 70.2503 71.9764 69.9037C72.0734 69.6126 72.3784 68.9334 72.6487 68.3997C72.9745 67.755 73.1547 67.3253 73.1686 67.1174C73.1963 66.8817 73.1547 66.7084 73.0161 66.3896C72.9121 66.1608 72.6279 65.7242 72.3853 65.4192C72.1497 65.1142 71.6437 64.5389 71.2694 64.1438C70.8882 63.7487 70.098 63.021 69.5088 62.5219C68.9197 62.0298 67.9839 61.3297 67.4294 60.9554C66.8749 60.5881 66.064 60.0959 65.6273 59.8603C65.1906 59.6246 64.3796 59.2365 63.8251 59.0077C63.2706 58.7721 62.4597 58.4601 62.023 58.3146C61.5863 58.1621 60.8031 57.9334 60.2902 57.8017C59.7773 57.67 58.994 57.4967 58.5573 57.4204C58.1207 57.3373 57.3721 57.2333 56.8938 57.1779C56.4156 57.1224 55.6393 57.06 55.161 57.0323C54.6827 57.0046 53.6638 57.0184 52.8945 57.06C52.1181 57.1016 50.9468 57.2125 50.2952 57.3095C49.6367 57.3997 48.5485 57.6215 47.8831 57.7878C47.2177 57.9611 46.3582 58.2037 45.977 58.3354C45.5958 58.4671 44.9373 58.7166 44.5214 58.883C44.1055 59.0562 43.4609 59.3474 43.1005 59.5276C42.7401 59.7078 42.0331 60.1029 41.541 60.394C41.0488 60.692 40.2587 61.2119 39.7943 61.5446C39.3368 61.8842 38.6922 62.3763 38.3803 62.6467C38.0614 62.917 37.6178 63.3051 37.3891 63.5131C37.1673 63.721 36.6336 64.2686 36.2108 64.7261C35.788 65.1835 35.3097 65.7727 35.1434 66.043C34.9701 66.3341 34.8384 66.653 34.8176 66.8401C34.776 67.1312 34.8176 67.2421 35.4067 68.4343C35.7533 69.1413 36.086 69.8691 36.1415 70.0632C36.1969 70.2503 36.2385 70.6246 36.2385 70.8949C36.2385 71.2068 36.19 71.5326 36.0999 71.796C36.0167 72.0247 35.8642 72.3644 35.7533 72.5584C35.6493 72.7456 35.4067 73.0506 35.2196 73.2239C35.0394 73.3971 34.7275 73.6189 34.5403 73.716C34.3532 73.813 34.0343 73.9308 33.8472 73.9794C33.6601 74.0348 33.2164 74.0764 32.8768 74.0764C32.357 74.0833 32.1906 74.0556 31.8787 73.9101C31.6708 73.813 31.4004 73.6189 31.2687 73.4734C31.1371 73.3209 30.9915 73.0575 30.9291 72.8149C30.8251 72.4753 30.8251 72.3644 30.9014 72.0039C30.9499 71.7752 31.0608 71.4702 31.1509 71.3247C31.241 71.186 31.5529 70.8117 31.844 70.4929C32.1352 70.181 32.4471 69.7513 32.5441 69.5433C32.6411 69.3354 32.7451 69.0443 32.7659 68.8987C32.8006 68.6977 32.7867 68.6423 32.7035 68.6423C32.6481 68.6423 32.5233 68.6908 32.4263 68.7601C32.3292 68.8225 32.0243 69.0858 31.7539 69.3492C31.4767 69.6057 31.04 69.9869 30.7836 70.181C30.534 70.382 30.1459 70.784 29.9241 71.0682C29.7092 71.3524 29.4389 71.6712 29.3349 71.7683C29.224 71.8722 29.0161 71.997 28.8705 72.0455C28.6556 72.1287 28.5517 72.1287 28.2813 72.0525C28.1011 72.0039 27.8308 71.8792 27.6853 71.7752C27.5328 71.6712 27.2763 71.394 27.11 71.1514C26.9436 70.9157 26.7426 70.4998 26.6594 70.2157C26.5416 69.8552 26.5 69.5503 26.5 69.0928C26.5 68.5729 26.5277 68.4135 26.6733 68.1224C26.7703 67.9283 26.9575 67.6649 27.0892 67.5332C27.2209 67.4015 27.6298 67.0827 27.9902 66.8332C28.3507 66.5836 28.822 66.1886 29.0299 65.9598C29.2379 65.7311 29.5082 65.3568 29.633 65.135C29.7508 64.9132 29.9033 64.5389 29.9587 64.3102C30.0211 64.0814 30.0974 63.5824 30.1389 63.2012C30.1805 62.8199 30.2568 61.4545 30.3122 60.1652C30.3746 58.7859 30.4162 56.3461 30.4162 54.2043C30.4162 52.215 30.3815 49.8861 30.3469 49.0266C30.3122 48.1671 30.2637 47.0581 30.2429 46.566C30.2221 46.0739 30.1667 45.3392 30.132 44.9371C30.0904 44.5351 30.028 44.0638 29.9934 43.8767C29.9587 43.6964 29.8478 43.3568 29.7508 43.1142C29.6468 42.8785 29.5151 42.6082 29.4597 42.5112C29.3973 42.4141 29.2379 42.1993 29.1062 42.0329C28.9675 41.8596 28.5933 41.52 28.2675 41.2774C27.9417 41.0279 27.512 40.6675 27.311 40.4734C27.103 40.2793 26.8604 39.9605 26.7565 39.7733C26.6109 39.4891 26.5693 39.302 26.5485 38.7683C26.5208 38.2623 26.5416 38.0197 26.6386 37.7286C26.7079 37.5206 26.8327 37.2018 26.9228 37.0147C27.0129 36.8344 27.207 36.5641 27.3526 36.4047C27.4912 36.2522 27.7684 36.0512 27.9556 35.9542C28.1497 35.8641 28.42 35.7878 28.5655 35.7878C28.7042 35.7878 28.9398 35.8502 29.0854 35.9195C29.224 35.9957 29.425 36.1413 29.5221 36.2522C29.6191 36.3562 29.7993 36.5849 29.9171 36.7582C30.0419 36.9315 30.3954 37.3058 30.7073 37.5899C31.0192 37.8741 31.5599 38.3801 31.9064 38.7128C32.2461 39.0455 32.5718 39.3158 32.6204 39.3228C32.6827 39.3228 32.6966 39.1911 32.6827 38.8514C32.6689 38.4633 32.6342 38.3385 32.4471 38.0751C32.3292 37.9019 31.9757 37.486 31.6708 37.1394C31.3589 36.7928 31.0539 36.4047 30.9846 36.273C30.906 36.1113 30.869 35.8687 30.8737 35.5452C30.8737 35.1917 30.9152 34.9838 31.0192 34.7828C31.1024 34.6303 31.2549 34.4223 31.3658 34.3253C31.4698 34.2283 31.6361 34.1035 31.7331 34.048C31.8302 33.9857 32.0451 33.9025 32.2183 33.8609Z" fill="#7C0680"/>
<path d="M34.2285 46.8016C34.277 45.5748 34.3117 45.1936 34.4018 45.0549C34.4711 44.9302 34.5681 44.8678 34.679 44.8678C34.7969 44.8678 35.1296 45.0965 35.7049 45.5748C36.1762 45.9699 36.9386 46.5868 38.2417 47.6057L38.2556 60.4979L37.6803 60.9069C37.3614 61.1356 36.6544 61.6832 36.0999 62.1268C35.5454 62.5704 35.0187 62.9724 34.9216 63.0209C34.8246 63.0694 34.6859 63.0972 34.6097 63.0764C34.5335 63.0556 34.4295 62.9585 34.3879 62.8615C34.3394 62.7645 34.2701 62.411 34.2285 62.0713C34.1869 61.7109 34.1592 58.8344 34.1661 54.9182C34.1661 51.3139 34.1938 47.6611 34.2285 46.8016Z" fill="#CFDDEA"/>
<path d="M70.7635 46.8432C71.2348 46.462 71.9418 45.8798 72.3369 45.5401C72.8429 45.1173 73.1062 44.9371 73.2379 44.9371C73.3419 44.9302 73.4944 44.9856 73.5845 45.0549C73.7301 45.1658 73.7509 45.256 73.8063 46.0808C73.841 46.5729 73.8687 49.4425 73.8687 52.4576C73.8618 55.4658 73.841 59.0354 73.7717 62.8338L73.5984 62.9655C73.5013 63.0417 73.3696 63.1041 73.3073 63.0972C73.2379 63.0972 72.725 62.7298 72.1636 62.2793C71.5952 61.8287 70.8744 61.2604 70.5486 61.0108C70.1951 60.7474 69.9109 60.4702 69.8416 60.3246C69.7238 60.0959 69.7168 59.6523 69.7168 54.031C69.7168 49.1514 69.7376 47.9453 69.8069 47.7582C69.8716 47.6103 70.1905 47.3053 70.7635 46.8432Z" fill="#CFDDEA"/>
<path d="M40.0508 59.181C40.0023 59.1602 39.9884 57.358 39.9953 53.9409L40.0092 48.7355L40.1548 48.8325C40.231 48.888 40.5568 49.089 40.8825 49.2692C41.2083 49.4494 41.8599 49.796 42.3381 50.0316C42.8164 50.2742 43.3709 50.5376 43.565 50.6277C43.7937 50.7317 43.9462 50.8495 43.967 50.9327C43.9878 51.0089 44.0016 52.3952 44.0016 54.0171C44.0086 56.8105 44.0016 56.9699 43.8769 57.1362C43.8006 57.2333 43.5719 57.3858 43.3709 57.4828C43.163 57.5729 42.4837 57.9333 41.8529 58.273C41.2222 58.6126 40.5776 58.9592 40.4181 59.0493C40.2518 59.1394 40.0924 59.2018 40.0508 59.181Z" fill="#CFDDEA"/>
<path d="M65.2461 50.2673C65.8977 49.9415 66.7502 49.4771 67.1522 49.2484C67.5543 49.0127 67.9147 48.8325 67.9493 48.8394C67.9979 48.8533 68.0187 50.6277 68.0187 53.9617C68.0187 56.7689 68.0048 59.0839 67.984 59.1117C67.9632 59.1324 67.887 59.1394 67.8107 59.1186C67.7345 59.0909 67.3117 58.8691 66.875 58.6195C66.4383 58.37 65.6343 57.9472 65.0936 57.6838C64.5114 57.4065 64.0747 57.1501 64.0331 57.0669C63.9916 56.9768 63.9638 55.8609 63.9708 54.1003C63.9777 52.5477 63.9985 51.1822 64.0262 51.0713C64.0609 50.8842 64.1787 50.8079 65.2461 50.2673Z" fill="#CFDDEA"/>
<path d="M45.8038 56.5124C45.7691 56.457 45.7414 55.2925 45.7345 53.927C45.7345 51.7575 45.7414 51.4525 45.8384 51.4525C45.8939 51.4525 46.0741 51.4941 46.2405 51.5496C46.3999 51.605 46.9682 51.7575 47.502 51.8962C48.0357 52.0278 48.7912 52.2011 49.1863 52.2774C49.5744 52.3606 49.9071 52.4229 49.9279 52.4229C49.9487 52.4229 49.9626 53.123 49.9626 53.9825C49.9626 55.3965 49.9487 55.549 49.8447 55.6044C49.7754 55.6391 49.5814 55.6876 49.4081 55.7153C49.2348 55.743 48.6941 55.8539 48.1951 55.9648C47.703 56.0827 46.9752 56.2698 46.5801 56.3946C45.9632 56.5817 45.8592 56.6025 45.8038 56.5124Z" fill="#CFDDEA"/>
<path d="M60.0823 52.0417C60.5952 51.91 61.2537 51.7298 61.5379 51.6328C61.8221 51.5427 62.0993 51.4595 62.1478 51.4595C62.2102 51.4525 62.231 51.9932 62.231 53.927C62.231 55.8401 62.2102 56.4223 62.1478 56.4847C62.0785 56.5471 61.9815 56.5401 61.7458 56.4708C61.5725 56.4154 61.0943 56.2767 60.6715 56.1658C60.2556 56.0549 59.5694 55.9025 59.1466 55.8193C58.7307 55.7361 58.3217 55.6252 58.2455 55.5767C58.1138 55.5004 58.1069 55.3895 58.0653 54.0102C58.0376 53.1923 58.0376 52.5061 58.0653 52.4784C58.0861 52.4507 58.3425 52.3952 58.6267 52.3536C58.9109 52.312 59.5694 52.1734 60.0823 52.0417Z" fill="#CFDDEA"/>
<path d="M51.7716 54.0934C51.7578 53.2963 51.7716 52.7903 51.8202 52.714C51.8825 52.6031 52.0766 52.5962 54.0451 52.5962C56.1522 52.5962 56.2077 52.5962 56.2423 52.7348C56.2631 52.8111 56.2631 53.4349 56.2354 55.3618L51.7994 55.3549L51.7716 54.0934Z" fill="#CFDDEA"/>
</svg>
