<svg width="108" height="108" viewBox="0 0 108 108" fill="none" xmlns="http://www.w3.org/2000/svg">
<path d="M28.258 30.3811C28.4628 30.3319 28.7413 30.2746 28.8724 30.2664C29.0035 30.25 29.3557 30.2664 29.6506 30.291C29.9865 30.3237 30.3878 30.4384 30.7401 30.6022C31.0432 30.7415 31.4937 31.0446 31.764 31.2903C32.0917 31.6016 32.3374 31.9293 32.5832 32.4208C32.8945 33.0351 32.9436 33.1908 32.9846 33.8461C33.0255 34.4195 33.0009 34.6816 32.8945 35.0339C32.8207 35.2796 32.4521 36.107 32.0835 36.877C31.5674 37.9583 31.4118 38.3678 31.379 38.7201C31.3544 39.0887 31.3872 39.2525 31.5592 39.6211C31.6821 39.8669 31.9688 40.3256 32.2064 40.6451C32.4439 40.9564 33.0501 41.6363 33.5416 42.1523C34.0331 42.6684 34.7949 43.3893 35.2209 43.7579C35.6468 44.1183 36.2366 44.6098 36.5315 44.8392C36.8264 45.0685 37.4735 45.5273 37.965 45.8631C38.4565 46.199 39.1938 46.6741 39.6033 46.9116C40.0129 47.1492 40.6928 47.5178 41.1188 47.7308C41.5447 47.9438 42.3393 48.296 42.88 48.509C43.4206 48.722 44.248 49.025 44.7231 49.1807C45.1982 49.3281 45.9928 49.5657 46.4842 49.6968C46.9757 49.8278 47.7539 50.008 48.2045 50.0981C48.655 50.1801 49.5233 50.3193 50.1295 50.4094C51.0224 50.5323 51.7678 50.5569 54.0614 50.5569C56.3387 50.5569 57.1005 50.5241 57.9934 50.4094C58.5996 50.3275 59.6153 50.1473 60.2461 50.0162C60.8768 49.8934 61.9991 49.5985 62.7445 49.3609C63.4899 49.1315 64.4811 48.7875 64.9562 48.5909C65.4313 48.4025 66.275 48.0175 66.8403 47.7472C67.4055 47.4768 68.2492 47.0181 68.7243 46.7314C69.1994 46.4447 70.0104 45.9123 70.5265 45.5436C71.0425 45.1668 71.8535 44.5443 72.3286 44.1511C72.8037 43.7579 73.6884 42.9305 74.2946 42.3244C74.9008 41.7182 75.6462 40.8826 75.9575 40.4813C76.2606 40.0717 76.5473 39.6129 76.5882 39.4573C76.6292 39.3017 76.6701 39.0313 76.6701 38.8593C76.6701 38.6955 76.6128 38.3842 76.5391 38.163C76.4653 37.9501 76.1786 37.3193 75.8919 36.7541C75.6134 36.1889 75.3021 35.4926 75.2038 35.1977C75.1055 34.8946 75.0318 34.4523 75.0318 34.1738C75.0318 33.9034 75.0892 33.4611 75.1629 33.1908C75.2284 32.9204 75.4086 32.4781 75.5479 32.216C75.6953 31.9538 76.0148 31.5525 76.2606 31.3231C76.5063 31.1019 76.8749 30.8316 77.0797 30.7333C77.2845 30.635 77.6531 30.4876 77.8989 30.4056C78.1774 30.3155 78.6115 30.2582 79.0457 30.25C79.5863 30.25 79.8239 30.2828 80.1106 30.4138C80.3154 30.5121 80.5857 30.676 80.725 30.7906C80.8642 30.8971 81.069 31.192 81.2001 31.4378C81.3557 31.7572 81.4212 32.003 81.4212 32.3061C81.4212 32.5682 81.3557 32.8959 81.2492 33.1252C81.1509 33.3464 80.725 33.928 80.299 34.4195C79.873 34.911 79.4471 35.4844 79.3488 35.6892C79.2587 35.894 79.1767 36.2053 79.1767 36.3855C79.1686 36.6312 79.2013 36.7131 79.3078 36.7295C79.3979 36.7459 79.7665 36.4592 80.2498 35.9923C80.6922 35.5745 81.2902 35.0175 81.5851 34.7554C81.88 34.4932 82.2977 34.0509 82.5271 33.7642C82.7483 33.4857 83.0841 33.1334 83.2643 32.9942C83.4445 32.8549 83.6985 32.7157 83.8377 32.6911C83.977 32.6665 84.2146 32.6665 84.3702 32.6911C84.5258 32.7239 84.8617 32.8631 85.1074 33.0106C85.4023 33.1826 85.6481 33.4119 85.8283 33.6823C85.9757 33.9116 86.1805 34.2966 86.2788 34.5424C86.4181 34.911 86.4509 35.1731 86.459 35.9759C86.459 36.877 86.4427 36.9917 86.2379 37.4094C86.1232 37.6552 85.8365 38.0238 85.6153 38.2286C85.3941 38.4334 85.0009 38.7283 84.747 38.8839C84.4849 39.0395 84.0016 39.4573 83.6657 39.8014C83.248 40.2437 82.9694 40.6287 82.7728 41.0301C82.6172 41.3578 82.437 41.882 82.3715 42.2015C82.2977 42.521 82.2076 43.4548 82.1585 44.2903C82.1093 45.1259 82.0356 47.0263 81.9946 48.509C81.9619 49.9917 81.9455 53.0389 81.9619 55.267C81.9783 57.4951 82.0274 60.354 82.0766 61.6155C82.1175 62.877 82.1994 64.3187 82.2404 64.8102C82.2895 65.3017 82.4042 65.9898 82.4943 66.3256C82.5844 66.6615 82.781 67.1612 82.9203 67.4315C83.0677 67.6936 83.3872 68.1359 83.633 68.4063C83.8787 68.6684 84.4603 69.1435 84.919 69.4466C85.3859 69.7579 85.8529 70.1347 85.9676 70.2739C86.074 70.4214 86.2461 70.7409 86.3362 70.9702C86.4509 71.2815 86.5 71.601 86.5 72.0761C86.5 72.4775 86.4427 72.9772 86.3526 73.2884C86.2706 73.5833 86.1068 73.9929 85.9839 74.2059C85.8611 74.4271 85.6399 74.722 85.5006 74.8776C85.3532 75.0332 85.0419 75.238 84.8207 75.3445C84.5914 75.4428 84.2391 75.5329 84.0343 75.5329C83.7558 75.5411 83.5756 75.4838 83.3626 75.3363C83.207 75.2216 82.9121 74.9104 82.7155 74.64C82.5107 74.3697 81.9865 73.8209 81.5359 73.4113C81.0936 73.0099 80.4628 72.4365 80.1515 72.1334C79.8403 71.8385 79.488 71.5436 79.1686 71.3716L79.2259 71.9041C79.2669 72.2317 79.3652 72.5512 79.488 72.756C79.5945 72.9362 79.9877 73.4113 80.3563 73.8209C80.725 74.2305 81.1181 74.7383 81.2328 74.9677C81.3885 75.2626 81.4458 75.5002 81.4458 75.8278C81.4458 76.0736 81.3803 76.4258 81.3066 76.606C81.2328 76.7862 81.069 77.0402 80.9461 77.163C80.8233 77.2941 80.5529 77.4907 80.3318 77.5972C80.1188 77.7037 79.6846 77.8348 79.3733 77.8757C78.931 77.9412 78.6607 77.9331 78.161 77.8348C77.817 77.7692 77.3255 77.6136 77.0797 77.4907C76.834 77.3678 76.449 77.0811 76.236 76.8518C76.0148 76.6306 75.7281 76.2538 75.6052 76.0326C75.4742 75.8032 75.294 75.4019 75.1957 75.1315C75.0974 74.8366 75.0318 74.4353 75.0318 74.124C75.0318 73.7963 75.1055 73.3867 75.2448 72.9772C75.3595 72.6331 75.7199 71.8303 76.0394 71.1996C76.4244 70.4378 76.6374 69.9299 76.6537 69.6842C76.6865 69.4056 76.6374 69.2009 76.4735 68.824C76.3507 68.5537 76.0148 68.0377 75.7281 67.6772C75.4496 67.3168 74.8516 66.6369 74.4093 66.17C73.9587 65.7031 73.0249 64.8429 72.3286 64.2532C71.6323 63.6716 70.5265 62.8442 69.8711 62.4019C69.2158 61.9677 68.2574 61.3861 67.7413 61.1076C67.2253 60.8291 66.2669 60.3704 65.6115 60.1C64.9562 59.8215 63.9978 59.4529 63.4817 59.2809C62.9657 59.1007 62.04 58.8303 61.4338 58.6747C60.8277 58.5191 59.902 58.3143 59.3859 58.2242C58.8699 58.1259 57.9852 58.003 57.42 57.9375C56.8548 57.8719 55.9373 57.7982 55.3721 57.7654C54.8069 57.7327 53.6027 57.7491 52.6934 57.7982C51.776 57.8474 50.3916 57.9784 49.6216 58.0931C48.8434 58.1996 47.5573 58.4617 46.771 58.6583C45.9846 58.8631 44.9688 59.1498 44.5183 59.3055C44.0677 59.4611 43.2895 59.756 42.798 59.9526C42.3066 60.1574 41.5447 60.5014 41.1188 60.7144C40.6928 60.9274 39.8573 61.3943 39.2757 61.7383C38.6941 62.0906 37.7602 62.7049 37.2114 63.0981C36.6708 63.4995 35.9089 64.0811 35.5403 64.4006C35.1635 64.7201 34.6393 65.1788 34.3689 65.4245C34.1068 65.6703 33.4761 66.3174 32.9764 66.8581C32.4767 67.3987 31.9115 68.095 31.7149 68.4145C31.5101 68.7585 31.3544 69.1353 31.3299 69.3565C31.2807 69.7005 31.3299 69.8316 32.0261 71.2405C32.4357 72.0761 32.8289 72.9362 32.8945 73.1656C32.96 73.3867 33.0091 73.8291 33.0091 74.1486C33.0091 74.5172 32.9518 74.9022 32.8453 75.2135C32.747 75.4838 32.5668 75.8852 32.4357 76.1145C32.3129 76.3357 32.0262 76.6961 31.805 76.9009C31.592 77.1057 31.2234 77.3678 31.0022 77.4825C30.781 77.5972 30.4042 77.7365 30.1831 77.7938C29.9619 77.8593 29.4376 77.9085 29.0362 77.9085C28.4219 77.9167 28.2253 77.8839 27.8566 77.7119C27.6109 77.5972 27.2914 77.3678 27.1358 77.1958C26.9802 77.0156 26.8081 76.7043 26.7344 76.4176C26.6115 76.0162 26.6115 75.8852 26.7016 75.4592C26.759 75.1889 26.89 74.8284 26.9965 74.6564C27.103 74.4926 27.4716 74.0503 27.8157 73.6734C28.1597 73.3048 28.5284 72.7969 28.643 72.5512C28.7577 72.3055 28.8806 71.9614 28.9052 71.7894C28.9461 71.5518 28.9297 71.4863 28.8314 71.4863C28.7659 71.4863 28.6185 71.5436 28.5038 71.6256C28.3891 71.6993 28.0287 72.0106 27.7092 72.3218C27.3815 72.6249 26.8655 73.0755 26.5624 73.3048C26.2675 73.5424 25.8088 74.0175 25.5466 74.3533C25.2927 74.6892 24.9732 75.066 24.8503 75.1807C24.7193 75.3036 24.4735 75.451 24.3015 75.5084C24.0476 75.6066 23.9247 75.6066 23.6052 75.5165C23.3922 75.4592 23.0728 75.3117 22.9008 75.1889C22.7205 75.066 22.4175 74.7383 22.2209 74.4516C22.0243 74.1731 21.7867 73.6816 21.6884 73.3458C21.5491 72.9198 21.5 72.5594 21.5 72.0187C21.5 71.4044 21.5328 71.216 21.7048 70.8719C21.8195 70.6426 22.0406 70.3313 22.1963 70.1756C22.3519 70.02 22.8352 69.6432 23.2612 69.3483C23.6871 69.0534 24.2442 68.5865 24.4899 68.3162C24.7357 68.0458 25.0551 67.6035 25.2026 67.3414C25.3418 67.0792 25.5221 66.6369 25.5876 66.3666C25.6613 66.0963 25.7514 65.5065 25.8006 65.0559C25.8497 64.6054 25.9398 62.9917 26.0054 61.468C26.0791 59.8379 26.1282 56.9545 26.1282 54.4233C26.1282 52.0723 26.0873 49.3199 26.0463 48.3042C26.0054 47.2884 25.948 45.9778 25.9234 45.3962C25.8989 44.8146 25.8333 43.9463 25.7924 43.4712C25.7432 42.9961 25.6695 42.439 25.6285 42.2179C25.5876 42.0049 25.4565 41.6035 25.3418 41.3168C25.219 41.0383 25.0633 40.7188 24.9978 40.6041C24.9241 40.4894 24.7357 40.2355 24.58 40.0389C24.4162 39.8341 23.9739 39.4327 23.5888 39.146C23.2038 38.8511 22.696 38.4252 22.4584 38.1958C22.2127 37.9664 21.926 37.5896 21.8031 37.3685C21.6311 37.0326 21.5819 36.8114 21.5573 36.1807C21.5246 35.5827 21.5491 35.296 21.6638 34.952C21.7457 34.7062 21.8932 34.3294 21.9997 34.1082C22.1062 33.8952 22.3355 33.5758 22.5076 33.3874C22.6714 33.2072 22.9991 32.9696 23.2202 32.8549C23.4496 32.7484 23.7691 32.6583 23.9411 32.6583C24.1049 32.6583 24.3834 32.732 24.5555 32.814C24.7193 32.9041 24.9568 33.0761 25.0715 33.2072C25.1862 33.33 25.3992 33.6003 25.5384 33.8051C25.6859 34.0099 26.1037 34.4523 26.4723 34.7881C26.8409 35.124 27.4798 35.722 27.8894 36.1152C28.2908 36.5083 28.6758 36.8278 28.7331 36.836C28.8069 36.836 28.8233 36.6804 28.8069 36.279C28.7905 35.8203 28.7495 35.6728 28.5284 35.3615C28.3891 35.1567 27.9713 34.6652 27.6109 34.2557C27.2423 33.8461 26.8819 33.3874 26.7999 33.2317C26.7071 33.0406 26.6634 32.7539 26.6689 32.3716C26.6689 31.9538 26.718 31.7081 26.8409 31.4705C26.9392 31.2903 27.1194 31.0446 27.2505 30.9299C27.3733 30.8152 27.5699 30.6678 27.6846 30.6022C27.7993 30.5285 28.0532 30.4302 28.258 30.3811Z" fill="#7C0680" stroke="#7C0680" stroke-width="0.25"/>
<path d="M30.6336 45.6747C30.6909 44.2248 30.7319 43.7743 30.8384 43.6105C30.9203 43.463 31.035 43.3893 31.166 43.3893C31.3053 43.3893 31.6985 43.6596 32.3784 44.2248C32.9354 44.6917 33.8365 45.4208 35.3765 46.6249L35.3929 61.8612L34.713 62.3445C34.3362 62.6149 33.5006 63.262 32.8453 63.7863C32.19 64.3105 31.5674 64.7856 31.4527 64.843C31.338 64.9003 31.1742 64.9331 31.0841 64.9085C30.994 64.8839 30.8711 64.7692 30.822 64.6546C30.7646 64.5399 30.6827 64.1221 30.6336 63.7207C30.5844 63.2948 30.5517 59.8953 30.5598 55.267C30.5598 51.0074 30.5926 46.6905 30.6336 45.6747Z" fill="#CFDDEA"/>
<path d="M73.8113 45.7239C74.3683 45.2733 75.2038 44.5852 75.6708 44.1839C76.2687 43.6842 76.58 43.4712 76.7357 43.4712C76.8585 43.463 77.0387 43.5285 77.1452 43.6105C77.3173 43.7415 77.3418 43.848 77.4074 44.8228C77.4483 45.4044 77.4811 48.7957 77.4811 52.359C77.4729 55.9142 77.4483 60.1328 77.3664 64.6218L77.1616 64.7774C77.0469 64.8675 76.8913 64.9413 76.8176 64.9331C76.7357 64.9331 76.1295 64.4989 75.466 63.9665C74.7943 63.434 73.9423 62.7623 73.5573 62.4674C73.1396 62.1561 72.8037 61.8285 72.7218 61.6565C72.5825 61.3861 72.5744 60.8619 72.5744 54.2185C72.5744 48.4517 72.5989 47.0263 72.6808 46.8052C72.7573 46.6304 73.1341 46.27 73.8113 45.7239Z" fill="#CFDDEA"/>
<path d="M37.5145 60.3048C37.4571 60.2803 37.4408 58.1505 37.4489 54.112L37.4653 47.9602L37.6374 48.0749C37.7275 48.1404 38.1125 48.3779 38.4975 48.5909C38.8825 48.8039 39.6525 49.2135 40.2177 49.492C40.7829 49.7787 41.4382 50.09 41.6676 50.1965C41.9379 50.3193 42.1181 50.4586 42.1427 50.5569C42.1673 50.647 42.1837 52.2853 42.1837 54.2021C42.1919 57.5033 42.1837 57.6917 42.0362 57.8883C41.9461 58.003 41.6758 58.1832 41.4382 58.2979C41.1925 58.4044 40.3897 58.8304 39.6443 59.2318C38.8989 59.6331 38.137 60.0427 37.9486 60.1492C37.752 60.2557 37.5636 60.3294 37.5145 60.3048Z" fill="#CFDDEA"/>
<path d="M67.2908 49.7705C68.0608 49.3855 69.0684 48.8367 69.5435 48.5663C70.0186 48.2878 70.4445 48.0749 70.4855 48.083C70.5428 48.0994 70.5674 50.1965 70.5674 54.1366C70.5674 57.4542 70.551 60.1902 70.5265 60.2229C70.5019 60.2475 70.4118 60.2557 70.3217 60.2311C70.2316 60.1984 69.7319 59.9362 69.2158 59.6413C68.6997 59.3464 67.7495 58.8468 67.1106 58.5355C66.4225 58.2078 65.9064 57.9047 65.8573 57.8064C65.8081 57.6999 65.7754 56.3811 65.7835 54.3004C65.7917 52.4655 65.8163 50.8518 65.8491 50.7207C65.89 50.4996 66.0293 50.4094 67.2908 49.7705Z" fill="#CFDDEA"/>
<path d="M44.3135 57.1511C44.2725 57.0856 44.2397 55.7094 44.2316 54.0956C44.2316 51.5317 44.2397 51.1713 44.3544 51.1713C44.42 51.1713 44.6329 51.2204 44.8295 51.2859C45.0179 51.3515 45.6897 51.5317 46.3204 51.6955C46.9512 51.8512 47.844 52.056 48.311 52.1461C48.7697 52.2444 49.1629 52.3181 49.1875 52.3181C49.212 52.3181 49.2284 53.1454 49.2284 54.1612C49.2284 55.8323 49.212 56.0125 49.0892 56.078C49.0072 56.119 48.7779 56.1763 48.5731 56.2091C48.3683 56.2418 47.7294 56.3729 47.1396 56.504C46.558 56.6432 45.6978 56.8644 45.2309 57.0118C44.5019 57.233 44.379 57.2576 44.3135 57.1511Z" fill="#CFDDEA"/>
<path d="M61.1881 51.8675C61.7943 51.7119 62.5725 51.4989 62.9083 51.3842C63.2442 51.2778 63.5718 51.1795 63.6292 51.1795C63.7029 51.1713 63.7275 51.8102 63.7275 54.0956C63.7275 56.3565 63.7029 57.0446 63.6292 57.1183C63.5473 57.1921 63.4326 57.1839 63.1541 57.1019C62.9493 57.0364 62.3841 56.8726 61.8844 56.7415C61.3929 56.6105 60.5819 56.4302 60.0822 56.3319C59.5907 56.2336 59.1074 56.1026 59.0173 56.0452C58.8617 55.9551 58.8535 55.8241 58.8043 54.1939C58.7716 53.2273 58.7716 52.4164 58.8043 52.3836C58.8289 52.3508 59.132 52.2853 59.4679 52.2362C59.8037 52.187 60.5819 52.0232 61.1881 51.8675Z" fill="#CFDDEA"/>
<path d="M51.3664 54.2922C51.35 53.3502 51.3664 52.7522 51.4237 52.6621C51.4975 52.5311 51.7268 52.5229 54.0532 52.5229C56.5435 52.5229 56.609 52.5229 56.65 52.6867C56.6745 52.7768 56.6745 53.514 56.6418 55.7913L51.3992 55.7831L51.3664 54.2922Z" fill="#CFDDEA"/>
</svg>
